<svg width="16" height="18" viewBox="0 0 16 18" fill="none" xmlns="http://www.w3.org/2000/svg">
<path fill-rule="evenodd" clip-rule="evenodd" d="M11.75 7.75C11.75 9.82107 10.0711 11.5 8 11.5C5.92893 11.5 4.25 9.82107 4.25 7.75C4.25 5.67893 5.92893 4 8 4C10.0711 4 11.75 5.67893 11.75 7.75ZM10.25 7.75C10.25 8.99264 9.24264 10 8 10C6.75736 10 5.75 8.99264 5.75 7.75C5.75 6.50736 6.75736 5.5 8 5.5C9.24264 5.5 10.25 6.50736 10.25 7.75Z" fill="#4C9EEB"/>
<path fill-rule="evenodd" clip-rule="evenodd" d="M16 8C16 13.5 9 18 8 18C7 18 0 13.5 0 8C0 3.58172 3.58172 0 8 0C12.4183 0 16 3.58172 16 8ZM14.5 8C14.5 10.1344 13.1106 12.2652 11.3325 13.984C10.4706 14.8171 9.58174 15.4897 8.86576 15.946C8.50821 16.1738 8.21236 16.3358 8 16.435C7.78765 16.3358 7.49179 16.1738 7.13424 15.946C6.41826 15.4897 5.52938 14.8171 4.66753 13.984C2.8894 12.2652 1.5 10.1344 1.5 8C1.5 4.41015 4.41015 1.5 8 1.5C11.5899 1.5 14.5 4.41015 14.5 8Z" fill="#4C9EEB"/>
</svg>
